<svg xmlns="http://www.w3.org/2000/svg" width="1440" height="900" viewBox="0 0 1440 900">
<rect width="1440" height="900" fill="#080b12"/><style>text{font-family:Menlo,monospace;fill:#d9e1f2}.t{font-size:18px;font-weight:bold}.d{fill:#758198}.v{font-size:26px;font-weight:bold}.p{fill:#ef6dff}.c{fill:#55d9e8}.g{fill:#58e39b}.panel{fill:#0d1320;stroke:#293249;stroke-width:2}</style>
<rect class="panel" x="20" y="20" width="1400" height="54" rx="8"/><text class="t" x="40" y="53" fill="#63a7ff">otop – ollama monitor</text><text class="g" x="610" y="53">● ollama 0.11.4  token proxy active</text><text class="d" x="1230" y="53">session 23m42s</text>
<rect class="panel" x="20" y="90" width="1400" height="280" rx="8" stroke="#8b4298"/><text class="t p" x="38" y="107">tokens</text><text class="v p" x="45" y="157">18,420</text><text x="155" y="157">output tok</text><text class="v c" x="285" y="157">4,321</text><text x="375" y="157">prompt tok</text><text class="v" x="510" y="157">86</text><text x="555" y="157">requests</text><text class="v g" x="690" y="157">41.7</text><text x="765" y="157">tok/s now</text>
<path d="M45 205v-8h15v8h8v-14h15v14h8v-21h15v21h8v-29h15v29h8v-19h15v19h8v-34h15v34h8v-27h15v27h8v-39h15v39" stroke="#ef6dff" stroke-width="7" fill="none"/>
<text class="d" x="45" y="242">#   model                 endpoint            out tok  prompt  tok/s  time   state</text><text x="45" y="275">86  qwen3:30b             /api/chat              256     812   44.8  6.1s   </text><text class="g" x="815" y="275">done</text><text x="45" y="308">85  gemma3:27b            /api/generate          181     340   38.2  5.9s   </text><text class="g" x="815" y="308">done</text><text x="45" y="341">84  llama3.2:latest        /v1/chat/completions     73     120   42.1  2.1s   </text><text class="g" x="815" y="341">generating</text>
<rect class="panel" x="20" y="386" width="692" height="210" rx="8" stroke="#287987"/><text class="t c" x="38" y="403">cpu / system</text><text x="45" y="450">cpu total</text><rect x="145" y="438" width="400" height="12" rx="6" fill="#20283a"/><rect x="145" y="438" width="250" height="12" rx="6" fill="#55d9e8"/><text x="565" y="450">62%</text><text class="d" x="45" y="484">16 cores · load 4.18 3.92 3.51 · ram 64.0 GB / 128.0 GB</text><text class="d" x="45" y="525">pid     proc              cpu%  threads    rss</text><text x="45" y="557">4120    ollama runner       623       38  34.0 GB</text>
<rect class="panel" x="728" y="386" width="692" height="210" rx="8" stroke="#287853"/><text class="t g" x="746" y="403">gpu (apple silicon)</text><text x="753" y="449">device</text><rect x="850" y="437" width="400" height="12" rx="6" fill="#20283a"/><rect x="850" y="437" width="384" height="12" rx="6" fill="#58e39b"/><text x="1270" y="449">96%</text><text x="753" y="482">renderer</text><rect x="850" y="470" width="400" height="12" rx="6" fill="#20283a"/><rect x="850" y="470" width="376" height="12" rx="6" fill="#58e39b"/><text x="1270" y="482">94%</text><text class="d" x="753" y="540">gpu mem 36.6 GB in use / 38.0 GB wired</text>
<rect class="panel" x="20" y="612" width="1400" height="115" rx="8"/><text class="t" x="38" y="629" fill="#63a7ff">loaded models</text><text class="d" x="45" y="670">model            size       vram       placement   quant   ctx      expires</text><text x="45" y="704">qwen3:30b       18.5 GB    18.5 GB     </text><text class="g" x="400" y="704">100% GPU</text><text x="510" y="704">Q4_K_M  32768    4m00s</text>
<rect class="panel" x="20" y="743" width="1400" height="135" rx="8"/><text class="t" x="38" y="760" fill="#63a7ff">benchmark history</text><text class="d" x="45" y="802">model            runs    generation tok/s    prompt tok/s    TTFT    total</text><text x="45" y="836">qwen3:30b          12          44.7               518.2       0.39s   6.04s</text><text x="45" y="864">gemma3:27b          8          38.3               401.6       0.52s   6.88s</text>
</svg>
